<?xml version="1.0" standalone="no"?>
<!DOCTYPE svg PUBLIC "-//W3C//DTD SVG 20010904//EN"
 "http://www.w3.org/TR/2001/REC-SVG-20010904/DTD/svg10.dtd">
<svg version="1.0" xmlns="http://www.w3.org/2000/svg"
 width="512.000000pt" height="512.000000pt" viewBox="0 0 512.000000 512.000000"
 preserveAspectRatio="xMidYMid meet">

<g transform="translate(0.000000,512.000000) scale(0.100000,-0.100000)"
fill="#87CEEB" stroke="none">
<path d="M160 4925 c-52 -17 -102 -61 -133 -119 -28 -54 -30 -165 -3 -216 26
-49 64 -88 111 -113 38 -21 57 -22 325 -27 310 -5 314 -6 345 -65 19 -35 476
-2089 466 -2093 -43 -16 -146 -89 -192 -135 -222 -221 -206 -637 33 -852 67
-60 189 -120 275 -134 49 -8 443 -11 1414 -9 l1346 3 48 30 c33 21 57 47 79
85 27 48 31 64 30 125 -1 106 -48 181 -139 222 -38 17 -116 18 -1370 23 -1429
5 -1365 3 -1385 56 -17 43 -11 72 19 106 l29 33 1414 5 1413 5 73 27 c100 36
170 81 241 152 71 73 125 158 151 242 33 108 372 2034 366 2077 -14 86 -90
176 -165 197 -23 6 -688 10 -1863 10 l-1827 0 -33 63 c-67 126 -214 243 -368
293 -76 24 -629 32 -700 9z m580 -135 c93 -10 193 -52 261 -109 47 -39 104
-122 134 -197 l24 -59 1880 -5 c1875 -5 1881 -5 1901 -25 11 -12 24 -34 28
-50 7 -22 -36 -278 -163 -990 -94 -528 -177 -983 -184 -1012 -34 -140 -154
-267 -307 -325 l-59 -23 -1410 -5 c-1562 -6 -1443 0 -1514 -71 -119 -118 -85
-316 67 -391 l47 -23 1338 -5 1339 -5 19 -24 c30 -36 26 -111 -7 -142 l-26
-24 -1316 -3 c-860 -1 -1335 1 -1371 8 -131 24 -251 112 -306 224 -14 29 -33
91 -42 136 -14 70 -15 93 -4 154 16 94 49 164 107 227 60 64 117 97 213 125
50 15 75 27 73 36 -2 7 -14 40 -27 73 -13 33 -125 521 -250 1085 -158 717
-233 1041 -251 1077 -27 55 -77 102 -141 130 -32 15 -83 18 -319 23 -306 5
-307 6 -322 64 -16 59 16 121 67 129 55 8 440 6 521 -3z"/>
<path d="M1205 4198 c3 -13 95 -429 205 -926 110 -496 207 -916 215 -932 23
-45 83 -100 134 -124 l46 -21 1215 0 1215 0 51 27 c66 35 120 98 139 162 9 28
85 445 170 926 85 481 157 883 159 893 4 16 -86 17 -1775 17 l-1779 0 5 -22z
m1220 -538 l0 -415 -431 -3 -431 -2 -91 413 c-51 228 -92 417 -92 420 0 4 235
6 523 5 l522 -3 0 -415z m1055 0 l0 -420 -455 0 -455 0 0 420 0 420 455 0 455
0 0 -420z m1100 400 c0 -11 -31 -195 -70 -410 -38 -215 -70 -395 -70 -400 0
-7 -142 -9 -407 -8 l-408 3 -3 405 c-1 223 0 411 3 417 3 10 108 13 480 13
467 0 475 0 475 -20z m-2152 -1342 l-3 -383 -250 -3 c-314 -4 -346 0 -392 42
-35 32 -36 34 -109 367 -41 183 -74 340 -74 346 0 10 88 13 415 13 l415 0 -2
-382z m1052 -3 l0 -385 -455 0 -455 0 0 385 0 385 455 0 455 0 0 -385z m930
379 c0 -3 -27 -156 -60 -341 -44 -246 -66 -343 -80 -363 -37 -51 -60 -55 -365
-55 l-280 0 -3 383 -2 382 395 0 c217 0 395 -3 395 -6z"/>
<path d="M1629 1102 c-349 -91 -466 -527 -210 -782 179 -179 463 -183 647 -8
99 93 144 198 144 334 0 186 -100 348 -263 424 -110 52 -205 61 -318 32z m259
-162 c69 -35 125 -92 156 -159 30 -65 30 -197 0 -262 -31 -67 -87 -124 -156
-159 -52 -25 -73 -30 -134 -30 -138 0 -238 60 -296 178 -28 57 -33 77 -33 142
0 65 5 85 33 142 58 118 155 177 293 178 65 0 84 -4 137 -30z"/>
<path d="M1670 839 c-33 -13 -88 -67 -107 -104 -21 -39 -21 -131 0 -171 23
-44 75 -92 115 -105 19 -6 59 -9 88 -7 184 15 247 256 95 363 -33 23 -54 30
-104 32 -34 2 -73 -2 -87 -8z m123 -161 l21 -28 -21 -27 c-25 -34 -47 -39 -78
-19 -33 22 -34 69 -2 91 30 21 56 16 80 -17z"/>
<path d="M3595 1109 c-133 -27 -264 -129 -324 -250 -183 -376 177 -786 571
-650 160 55 279 198 308 371 36 214 -99 439 -307 511 -70 24 -180 32 -248 18z
m225 -165 c68 -31 123 -84 158 -149 24 -44 27 -61 27 -145 0 -84 -3 -101 -27
-145 -58 -110 -163 -175 -284 -175 -84 0 -141 18 -200 63 -59 45 -101 111
-120 189 -16 63 -16 73 0 135 19 79 61 145 120 190 60 46 109 61 196 62 60 1
86 -4 130 -25z"/>
<path d="M3605 833 c-82 -43 -119 -108 -113 -199 3 -52 9 -70 34 -101 79 -98
215 -111 303 -30 79 72 79 222 0 294 -56 51 -163 69 -224 36z m125 -143 c11
-11 20 -29 20 -40 0 -26 -34 -60 -60 -60 -11 0 -29 9 -40 20 -11 11 -20 29
-20 40 0 11 9 29 20 40 11 11 29 20 40 20 11 0 29 -9 40 -20z"/>
</g>
</svg>
